<?xml version="1.0" standalone="no"?>
<!DOCTYPE svg PUBLIC "-//W3C//DTD SVG 20010904//EN"
 "http://www.w3.org/TR/2001/REC-SVG-20010904/DTD/svg10.dtd">
<svg version="1.0" xmlns="http://www.w3.org/2000/svg"
 width="256.000000pt" height="256.000000pt" viewBox="0 0 256.000000 256.000000"
 preserveAspectRatio="xMidYMid meet">
<metadata>
Created by potrace 1.14, written by Peter Selinger 2001-2017
</metadata>
<g transform="translate(0.000000,256.000000) scale(0.100000,-0.100000)"
fill="#000000" stroke="none">
<path d="M1194 2534 c-48 -33 -61 -49 -75 -96 -7 -21 -15 -38 -18 -39 -3 0
-47 -2 -97 -3 -49 -2 -101 -9 -115 -16 -54 -28 -99 -87 -99 -130 0 -20 -5 -20
-266 -20 -290 0 -317 -4 -345 -57 -11 -21 -14 -200 -13 -1062 0 -973 1 -1038
18 -1063 9 -14 31 -31 48 -37 21 -8 351 -11 1055 -11 1112 0 1062 -2 1093 55
20 38 21 2081 1 2119 -28 51 -56 56 -345 56 l-266 0 0 24 c0 12 -10 38 -22 56
-47 69 -100 89 -225 86 -72 -2 -72 -2 -79 27 -25 116 -157 174 -250 111z m115
-55 c31 -11 61 -52 61 -84 0 -31 -30 -73 -60 -83 -41 -15 -86 2 -105 39 -32
61 -9 108 71 139 1 0 15 -5 33 -11z"/>
</g>
</svg>
